<svg id="visual" viewBox="0 0 960 540" width="100%" height="100%" xmlns="http://www.w3.org/2000/svg" xmlns:xlink="http://www.w3.org/1999/xlink" version="1.1"><rect x="0" y="0" width="960" height="540" fill="#001220"></rect><defs><linearGradient id="grad1_0" x1="43.8%" y1="0%" x2="100%" y2="100%"><stop offset="14.444444444444446%" stop-color="#001220" stop-opacity="1"></stop><stop offset="85.55555555555554%" stop-color="#001220" stop-opacity="1"></stop></linearGradient></defs><defs><linearGradient id="grad2_0" x1="0%" y1="0%" x2="56.3%" y2="100%"><stop offset="14.444444444444446%" stop-color="#001220" stop-opacity="1"></stop><stop offset="85.55555555555554%" stop-color="#001220" stop-opacity="1"></stop></linearGradient></defs><g transform="translate(960, 0)"><path d="M0 378C-25.2 367.1 -50.4 356.2 -81 354.9C-111.6 353.6 -147.5 361.8 -164 340.6C-180.5 319.3 -177.6 268.5 -198.9 249.4C-220.2 230.3 -265.8 242.7 -290.8 231.9C-315.9 221.1 -320.5 187.1 -329.8 158.8C-339 130.5 -352.9 108.1 -361.7 82.6C-370.5 57.1 -374.3 28.5 -378 0L0 0Z" fill="#FBAE3C"></path></g><g transform="translate(0, 540)"><path d="M0 -378C27.4 -374.9 54.8 -371.8 84.1 -368.5C113.5 -365.2 144.8 -361.6 162.7 -337.9C180.6 -314.1 185.1 -270.1 192 -240.8C199 -211.5 208.5 -196.7 236.1 -188.3C263.7 -179.9 309.5 -177.7 334.3 -161C359 -144.2 362.8 -112.9 366.6 -83.7C370.4 -54.4 374.2 -27.2 378 0L0 0Z" fill="#FBAE3C"></path></g></svg>