<svg id="visual" viewBox="0 0 960 540" width="960" height="540" xmlns="http://www.w3.org/2000/svg" xmlns:xlink="http://www.w3.org/1999/xlink" version="1.1"><rect x="0" y="0" width="960" height="540" fill="#292929"></rect><defs><linearGradient id="grad1_0" x1="43.8%" y1="0%" x2="100%" y2="100%"><stop offset="14.444444444444446%" stop-color="#292929" stop-opacity="1"></stop><stop offset="85.55555555555554%" stop-color="#292929" stop-opacity="1"></stop></linearGradient></defs><defs><linearGradient id="grad2_0" x1="0%" y1="0%" x2="56.3%" y2="100%"><stop offset="14.444444444444446%" stop-color="#292929" stop-opacity="1"></stop><stop offset="85.55555555555554%" stop-color="#292929" stop-opacity="1"></stop></linearGradient></defs><g transform="translate(960, 0)"><path d="M0 378C-28.2 369.6 -56.4 361.3 -78.8 345.1C-101.1 329 -117.7 305.1 -141.4 293.7C-165.2 282.4 -196.2 283.5 -214.5 269C-232.8 254.4 -238.5 224 -255.7 203.9C-272.8 183.8 -301.5 173.8 -323.4 155.8C-345.4 137.7 -360.6 111.4 -368.5 84.1C-376.5 56.8 -377.2 28.4 -378 0L0 0Z" fill="#F2A007"></path></g><g transform="translate(0, 540)"><path d="M0 -378C28.7 -374.8 57.3 -371.5 81.7 -357.8C106 -344.1 125.9 -319.8 145.4 -301.8C164.8 -283.8 183.6 -272 210.7 -264.3C237.9 -256.5 273.2 -252.8 295.5 -235.7C317.8 -218.5 327 -188 330.7 -159.2C334.3 -130.5 332.3 -103.7 339.3 -77.4C346.2 -51.2 362.1 -25.6 378 0L0 0Z" fill="#F2A007"></path></g></svg>